# xmcd
#
# Track frame offsets:
#	150
#	13531
#	25401
#	37837
#	50174
#	63633
#	77872
#	90495
#	105398
#	118794
#	130553
#	143389
#	157142
#	170249
#	183007
#	197009
#	210566
#	223861
#	237050
#	250852
#	264209
#	276630
#
# Disc length: 3850 seconds
#
# Revision: 1
# Processed by: cddbd v1.5.2PL0 Copyright (c) Steve Scherf et al.
# Submitted via: audiograbber 1.83.01
#
DISCID=350f0816
DTITLE=Slim Clark - Yodeling Slim Clark
DYEAR=1900
DGENRE=
TTITLE0=Ding Dong Polka
TTITLE1=Git along to the big Coral
TTITLE2=Hobo Bill´s last ride
TTITLE3=My little lady
TTITLE4=My little swiss miss
TTITLE5=Ol´zebra dun
TTITLE6=Sittin´ in the saddle
TTITLE7=Sweet Betsy from pike
TTITLE8=Sweet little bluebird girl
TTITLE9=Swiss dream
TTITLE10=The big stampede
TTITLE11=The cowboy´s dream
TTITLE12=The cowboy´s lament
TTITLE13=The gal I left behind me
TTITLE14=The smoke went up the chimney
TTITLE15=The Swiss yodeling cowboy
TTITLE16=The wedding of the Swiss miss
TTITLE17=There´s a love knot in my lariat
TTITLE18=When the work´s all done this fall
TTITLE19=Yellow rose of Texas
TTITLE20=Yodel Polka
TTITLE21=Yodeling maid
EXTD=
EXTT0=
EXTT1=
EXTT2=
EXTT3=
EXTT4=
EXTT5=
EXTT6=
EXTT7=
EXTT8=
EXTT9=
EXTT10=
EXTT11=
EXTT12=
EXTT13=
EXTT14=
EXTT15=
EXTT16=
EXTT17=
EXTT18=
EXTT19=
EXTT20=
EXTT21=
PLAYORDER=
